<?xml version="1.0" standalone="no"?>
<!DOCTYPE svg PUBLIC "-//W3C//DTD SVG 20010904//EN"
 "http://www.w3.org/TR/2001/REC-SVG-20010904/DTD/svg10.dtd">
<svg version="1.0" xmlns="http://www.w3.org/2000/svg"
 width="283.000000pt" height="35.000000pt" viewBox="0 0 283.000000 35.000000"
 preserveAspectRatio="xMidYMid meet">

<g transform="translate(0.000000,35.000000) scale(0.100000,-0.100000)"
fill="#000000" stroke="none">
<path d="M903 240 c-12 -5 -27 -18 -33 -29 -11 -22 -66 -30 -86 -13 -5 5 -20
3 -34 -4 -21 -11 -22 -14 -7 -20 9 -3 17 -12 17 -19 0 -9 12 -11 43 -8 38 5
45 2 59 -20 17 -24 80 -47 130 -47 18 0 14 5 -18 19 -60 27 -64 41 -11 41 49
0 107 17 107 31 0 5 -35 9 -77 9 -54 0 -73 3 -63 10 8 5 36 10 63 10 52 0 66
19 15 21 -31 1 -31 2 -8 8 22 6 23 8 7 14 -25 9 -77 8 -104 -3z"/>
<path d="M360 199 c-52 -11 -113 -23 -135 -27 -22 -5 55 -6 178 -4 196 4 217
3 217 -12 0 -9 5 -16 10 -16 6 0 10 6 10 14 0 8 6 16 13 19 28 10 -8 21 -62
19 -43 -2 -61 1 -71 12 -16 20 -40 19 -160 -5z"/>
<path d="M1925 183 c-303 -25 -255 -31 263 -32 512 -1 519 -1 494 34 -10 15
-569 13 -757 -2z"/>
</g>
</svg>
